HIERARCHY
ROOT SpineBase
{
  OFFSET 0.000000 0.000000 0.000000
  CHANNELS 6 Xposition Yposition Zposition Zrotation Xrotation Yrotation
  JOINT SpineMid
  {
    OFFSET 0.000000 31.032035 0.000000
    CHANNELS 3 Zrotation Xrotation Yrotation
    JOINT SpineShoulder
    {
      OFFSET 0.471070 23.052551 -0.628314
      CHANNELS 3 Zrotation Xrotation Yrotation
      JOINT Neck
      {
        OFFSET 0.284275 7.623442 -0.506266
        CHANNELS 3 Zrotation Xrotation Yrotation
        JOINT Head
        {
          OFFSET 5.603602 12.750565 3.601315
          CHANNELS 3 Zrotation Xrotation Yrotation
          End Site
          {
            OFFSET 0 0 0
          }
        }
      }
      JOINT ShoulderLeft
      {
        OFFSET -10.207742 -2.889786 -13.546641
        CHANNELS 3 Zrotation Xrotation Yrotation
        JOINT ElbowLeft
        {
          OFFSET -8.395632 -27.009398 -3.535161
          CHANNELS 3 Zrotation Xrotation Yrotation
          JOINT WristLeft
          {
            OFFSET 0.016636 -21.351055 -2.644619
            CHANNELS 3 Zrotation Xrotation Yrotation
            JOINT HandLeft
            {
              OFFSET 0.312734 -6.284687 -0.351823
              CHANNELS 3 Zrotation Xrotation Yrotation
              JOINT HandTipLeft
              {
                OFFSET 0.278915 -8.233341 0.235059
                CHANNELS 3 Zrotation Xrotation Yrotation
                End Site
                {
                  OFFSET 0 0 0
                }
              }
              JOINT ThumbLeft
              {
                OFFSET -3.863392 3.144395 -3.002321
                CHANNELS 3 Zrotation Xrotation Yrotation
                End Site
                {
                  OFFSET 0 0 0
                }
              }
            }
          }
        }
      }
      JOINT ShoulderRight
      {
        OFFSET 10.447100 -3.487126 13.131915
        CHANNELS 3 Zrotation Xrotation Yrotation
        JOINT ElbowRight
        {
          OFFSET 2.374952 -27.779267 5.094487
          CHANNELS 3 Zrotation Xrotation Yrotation
          JOINT WristRight
          {
            OFFSET 12.630287 -14.575220 -9.878933
            CHANNELS 3 Zrotation Xrotation Yrotation
            JOINT HandRight
            {
              OFFSET 4.755186 1.578276 -1.020997
              CHANNELS 3 Zrotation Xrotation Yrotation
              JOINT HandTipRight
              {
                OFFSET 6.251114 -0.216269 -4.504537
                CHANNELS 3 Zrotation Xrotation Yrotation
                End Site
                {
                  OFFSET 0 0 0
                }
              }
              JOINT ThumbRight
              {
                OFFSET 4.271211 2.102755 -0.934195
                CHANNELS 3 Zrotation Xrotation Yrotation
                End Site
                {
                  OFFSET 0 0 0
                }
              }
            }
          }
        }
      }
    }
  }
  JOINT HipLeft
  {
    OFFSET -2.814908 1.409424 -8.997505
    CHANNELS 3 Zrotation Xrotation Yrotation
    JOINT KneeLeft
    {
      OFFSET 0.285585 -39.704072 -11.035901
      CHANNELS 3 Zrotation Xrotation Yrotation
      JOINT AnkleLeft
      {
        OFFSET -11.634619 -36.505939 5.982623
        CHANNELS 3 Zrotation Xrotation Yrotation
        JOINT FootLeft
        {
          OFFSET -0.646165 -9.474066 -4.338747
          CHANNELS 3 Zrotation Xrotation Yrotation
          End Site
          {
            OFFSET 0 0 0
          }
        }
      }
    }
  }
  JOINT HipRight
  {
    OFFSET 4.789113 0.173063 1.948157
    CHANNELS 3 Zrotation Xrotation Yrotation
    JOINT KneeRight
    {
      OFFSET 2.667078 -35.726838 0.451543
      CHANNELS 3 Zrotation Xrotation Yrotation
      JOINT AnkleRight
      {
        OFFSET -10.225074 -39.681307 6.730166
        CHANNELS 3 Zrotation Xrotation Yrotation
        JOINT FootRight
        {
          OFFSET 3.917861 -7.934075 -3.611096
          CHANNELS 3 Zrotation Xrotation Yrotation
          End Site
          {
            OFFSET 0 0 0
          }
        }
      }
    }
  }
}
MOTION
Frames: 6
Frame Time: 0.033333
-94.616098 84.274653 341.633680 -0.000000 0.000000 -55.212047 0.000000 0.000000 55.212047 -0.000000 0.000000 0.000000 -0.000000 0.000000 0.000000 0.000000 0.000000 0.000000 -0.000000 0.000000 0.000000 -0.000000 0.000000 0.000000 -0.000000 0.000000 0.000000 -0.000000 0.000000 0.000000 0.000000 0.000000 0.000000 0.000000 0.000000 0.000000 -0.000000 0.000000 0.000000 -0.000000 0.000000 0.000000 -0.000000 0.000000 0.000000 -0.000000 0.000000 0.000000 0.000000 0.000000 0.000000 0.000000 0.000000 0.000000 0.000000 0.000000 55.212047 -0.000000 0.000000 0.000000 -0.000000 0.000000 0.000000 0.000000 0.000000 0.000000 0.000000 0.000000 55.212047 -0.000000 0.000000 0.000000 -0.000000 0.000000 0.000000 0.000000 0.000000 0.000000
-94.858116 84.366435 340.706309 -0.350064 0.155645 -55.649773 0.326024 0.201192 55.649677 -0.000000 0.000000 0.000000 -0.508680 2.228564 -0.819844 0.000000 0.000000 0.000000 -0.085182 2.259247 -0.687588 0.058042 -0.721926 0.695690 -0.129366 -4.081923 -0.130858 0.159295 2.545598 0.114087 0.000000 0.000000 0.000000 0.000000 0.000000 0.000000 -0.000000 0.000000 0.000000 0.677306 -0.763331 -1.115334 -4.278702 -1.124779 3.909311 2.233034 0.621544 -5.970469 0.000000 0.000000 0.000000 0.000000 0.000000 0.000000 1.148849 -0.884077 55.765656 2.481129 -0.046913 0.625561 10.131921 9.260576 -7.771144 0.000000 0.000000 0.000000 -0.502854 -1.522691 55.594619 2.909652 -0.818370 0.504210 0.838804 1.577925 -1.090787 0.000000 0.000000 0.000000
-95.061100 84.427346 339.847832 -0.557900 0.188388 -56.084001 0.467632 0.357861 56.083458 -0.000000 0.000000 0.000000 -0.777258 4.038383 -1.508967 0.000000 0.000000 0.000000 0.026728 4.209692 -1.307364 0.227400 -1.369456 1.291305 -0.350275 -6.885023 -0.185826 0.885895 3.445469 0.141664 0.000000 0.000000 0.000000 0.000000 0.000000 0.000000 -0.970879 0.757951 -0.107040 1.942138 -2.463357 -1.994639 -8.181956 -2.419685 7.698884 4.677671 1.377065 -12.334887 0.000000 0.000000 0.000000 0.000000 0.000000 0.000000 1.994986 -1.853956 56.360424 4.863093 0.041964 1.057759 20.268671 15.177933 -16.350546 0.000000 0.000000 0.000000 -0.758668 -2.440891 55.982336 4.834178 -1.507327 0.920714 1.902720 3.274558 -2.017086 0.000000 0.000000 0.000000
-95.225052 84.457385 339.058252 -0.625533 0.099597 -56.522529 0.428130 0.466818 56.521328 -0.000000 0.000000 0.000000 -0.816538 5.419237 -2.079598 0.000000 0.000000 0.000000 0.325869 5.874297 -1.875838 0.505808 -1.960141 1.804428 -0.685336 -8.677251 -0.168333 1.205544 3.938376 0.155894 0.000000 0.000000 0.000000 0.000000 0.000000 0.000000 -1.207801 0.868683 -0.138401 2.086540 -3.695615 -2.882199 -11.119476 -3.401130 10.850253 6.835791 2.041724 -18.379777 0.000000 0.000000 0.000000 0.000000 0.000000 0.000000 2.533377 -2.912108 57.005226 7.150245 0.235203 1.303271 28.544860 17.843327 -23.829412 0.000000 0.000000 0.000000 -0.805112 -2.802818 56.394959 5.816501 -2.052747 1.245737 3.205023 5.081185 -2.781249 0.000000 0.000000 0.000000
-95.349972 84.456553 338.337567 -0.554230 -0.110022 -56.971445 0.209854 0.524631 56.969952 -0.000000 0.000000 0.000000 -0.634766 6.365548 -2.539331 0.000000 0.000000 0.000000 0.808102 7.272303 -2.405605 0.884910 -2.507346 2.249194 -1.139843 -9.610949 -0.085886 1.479979 3.841807 0.158863 0.000000 0.000000 0.000000 0.000000 0.000000 0.000000 -1.279761 0.800584 -0.157672 1.676926 -4.926203 -3.727167 -12.303386 -3.236514 12.659413 7.882325 2.299333 -23.034855 0.000000 0.000000 0.000000 0.000000 0.000000 0.000000 2.759598 -4.060937 57.706384 9.349773 0.504403 1.372403 34.244288 18.328852 -29.256857 0.000000 0.000000 0.000000 -0.664359 -2.631471 56.840418 5.874814 -2.443678 1.476245 4.749858 6.992093 -3.384798 0.000000 0.000000 0.000000
-95.435859 84.424849 337.685778 -0.344508 -0.440402 -57.435219 0.848647 0.338672 57.457658 0.332104 -0.268277 0.062890 -0.955636 8.116225 -2.973226 0.000000 0.000000 0.000000 0.764409 9.658293 -3.026508 1.350127 -3.020174 2.636278 -1.707499 -9.766484 0.052545 1.720128 3.228265 0.165304 0.000000 0.000000 0.000000 0.000000 0.000000 0.000000 -1.914616 1.797507 -0.225999 0.704387 -6.155485 -4.544408 -10.960787 -1.045909 12.390575 6.958727 1.798403 -25.212415 0.000000 0.000000 0.000000 0.000000 0.000000 0.000000 2.669943 -5.303206 58.467595 11.469787 0.825149 1.277790 37.511454 17.548273 -32.548182 0.000000 0.000000 0.000000 -0.345737 -1.925252 57.316931 5.004121 -2.672373 1.611273 6.531745 9.003961 -3.827921 0.000000 0.000000 0.000000
